<?xml version="1.0" standalone="no"?><!-- Generator: Gravit.io --><svg xmlns="http://www.w3.org/2000/svg" xmlns:xlink="http://www.w3.org/1999/xlink" style="isolation:isolate" viewBox="144.523 378.228 285.477 56.1" width="285.477" height="56.1"><g id="Group"><path d=" M 159.957 426.381 C 157.503 426.381 155.646 425.873 154.438 424.872 C 153.34 423.962 152.828 422.906 152.828 421.552 C 152.828 420.094 153.457 418.888 154.807 417.757 C 156.253 416.546 158.686 415.933 162.041 415.933 C 164.003 415.933 165.935 416.142 167.782 416.555 C 168.919 416.809 169.764 417.057 170.391 417.278 L 170.391 417.672 C 170.391 419.167 169.941 420.527 169.019 421.831 C 168.026 423.233 166.75 424.315 165.115 425.142 C 163.467 425.976 161.779 426.381 159.957 426.381 Z  M 161.896 395.987 C 159.443 395.987 157.069 396.28 154.84 396.858 C 152.58 397.443 150.605 398.236 148.97 399.218 L 147.223 400.267 L 149.848 407.74 L 152.477 406.164 C 153.47 405.568 154.803 405.042 156.438 404.602 C 158.087 404.158 159.851 403.933 161.682 403.933 C 164.655 403.933 166.889 404.604 168.319 405.927 C 169.105 406.654 169.67 407.721 170.01 409.115 C 169.632 409.019 169.239 408.926 168.828 408.835 C 166.697 408.367 164.389 408.13 161.969 408.13 C 158.16 408.13 154.92 408.757 152.338 409.992 C 149.653 411.278 147.654 412.978 146.396 415.043 C 145.153 417.085 144.523 419.276 144.523 421.552 C 144.523 423.858 145.18 426.033 146.474 428.018 C 147.75 429.98 149.589 431.548 151.938 432.679 C 154.21 433.773 156.859 434.327 159.813 434.327 C 162.908 434.327 165.876 433.559 168.635 432.042 C 169.251 431.703 169.836 431.333 170.391 430.934 L 170.391 433.681 L 178.768 433.681 L 178.768 413.073 C 178.768 401.896 172.934 395.987 161.896 395.987 Z " fill="rgb(255,255,255)"/><path d=" M 181.86 433.681 L 190.309 433.681 L 190.309 378.228 L 181.86 378.228 L 181.86 433.681 Z " fill="rgb(255,255,255)"/><path d=" M 193.401 433.681 L 201.85 433.681 L 201.85 378.228 L 193.401 378.228 L 193.401 433.681 Z " fill="rgb(255,255,255)"/><path d=" M 224.327 426.31 C 222.322 426.31 220.53 425.825 218.848 424.827 C 217.149 423.82 215.844 422.494 214.855 420.774 C 213.87 419.059 213.39 417.221 213.39 415.158 C 213.39 413.093 213.87 411.256 214.855 409.541 C 215.843 407.822 217.149 406.496 218.848 405.488 C 220.53 404.49 222.322 404.005 224.327 404.005 C 226.327 404.005 228.104 404.488 229.76 405.481 C 231.439 406.489 232.737 407.817 233.728 409.541 C 234.714 411.255 235.192 413.092 235.192 415.158 C 235.192 417.223 234.714 419.06 233.729 420.773 C 232.737 422.498 231.438 423.827 229.76 424.833 C 228.104 425.827 226.327 426.31 224.327 426.31 Z  M 233.967 398.596 C 231.026 396.866 227.76 395.988 224.256 395.988 C 220.804 395.988 217.552 396.864 214.589 398.591 C 211.642 400.31 209.276 402.65 207.556 405.545 C 205.821 408.463 204.942 411.698 204.942 415.158 C 204.942 418.618 205.821 421.852 207.556 424.77 C 209.277 427.665 211.643 430.005 214.589 431.724 C 217.552 433.452 220.804 434.328 224.256 434.328 C 227.76 434.328 231.026 433.45 233.967 431.718 C 236.884 430.001 239.235 427.664 240.954 424.77 C 242.689 421.853 243.569 418.619 243.569 415.158 C 243.569 411.697 242.689 408.463 240.955 405.545 C 239.235 402.652 236.885 400.314 233.967 398.596 Z " fill="rgb(255,255,255)"/><path d=" M 294.252 397.76 C 292.166 396.744 289.966 396.229 287.711 396.229 C 284.796 396.229 282.145 397.011 279.831 398.554 C 277.856 399.87 276.248 401.609 275.035 403.732 C 274.016 401.377 272.496 399.569 270.504 398.344 C 268.219 396.941 265.721 396.229 263.078 396.229 C 260.435 396.229 258.003 396.901 255.853 398.225 C 254.201 399.241 252.748 400.549 251.517 402.128 L 251.517 397.186 L 246.66 397.186 L 246.66 433.61 L 251.517 433.61 L 251.517 411.85 C 251.517 409.884 252.002 408.032 252.959 406.345 C 253.917 404.654 255.235 403.271 256.878 402.236 C 258.507 401.207 260.325 400.687 262.282 400.687 C 265.015 400.687 267.202 401.618 268.968 403.537 C 270.722 405.441 271.611 408.48 271.611 412.568 L 271.611 433.61 L 276.467 433.61 L 276.467 412.727 C 276.467 409.267 277.456 406.358 279.403 404.079 C 281.358 401.796 283.84 400.687 286.994 400.687 C 289.786 400.687 292.068 401.636 293.971 403.588 C 295.851 405.518 296.803 408.539 296.803 412.568 L 296.803 433.61 L 301.579 433.61 L 301.579 411.372 C 301.579 407.884 300.882 404.971 299.505 402.713 C 298.126 400.452 296.359 398.785 294.252 397.76 Z " fill="rgb(255,255,255)"/><path d=" M 312.21 406.982 C 313.537 405.045 315.244 403.494 317.282 402.372 C 319.316 401.253 321.559 400.687 323.95 400.687 C 327.499 400.687 330.491 401.892 332.843 404.269 C 335.079 406.529 336.46 409.4 336.952 412.81 L 309.913 412.81 C 310.233 410.703 311.005 408.746 312.211 406.982 L 312.21 406.982 Z  M 339.628 405.692 C 338.127 402.855 335.982 400.545 333.254 398.826 C 330.519 397.103 327.389 396.229 323.95 396.229 C 320.518 396.229 317.286 397.099 314.344 398.816 C 311.403 400.531 309.043 402.878 307.329 405.79 C 305.612 408.706 304.742 411.924 304.742 415.358 C 304.742 418.791 305.599 421.997 307.289 424.885 C 308.979 427.774 311.355 430.096 314.351 431.785 C 317.344 433.472 320.734 434.328 324.428 434.328 C 327.356 434.328 330.203 433.778 332.888 432.693 C 335.572 431.608 337.926 430.094 339.882 428.192 L 340.21 427.873 L 337.762 424.148 L 337.28 424.6 C 335.584 426.195 333.574 427.486 331.309 428.438 C 329.048 429.388 326.706 429.871 324.349 429.871 C 321.744 429.871 319.34 429.276 317.201 428.105 C 315.062 426.933 313.318 425.319 312.02 423.308 C 310.83 421.464 310.091 419.435 309.819 417.268 L 341.75 417.268 L 341.8 416.769 C 341.856 416.217 341.883 415.555 341.883 414.8 C 341.883 411.589 341.124 408.525 339.628 405.693 L 339.628 405.692 Z " fill="rgb(255,255,255)"/><path d=" M 363.839 429.95 C 361.243 429.95 358.831 429.293 356.671 427.996 C 354.508 426.699 352.778 424.904 351.529 422.662 C 350.28 420.418 349.647 417.934 349.647 415.279 C 349.647 412.624 350.28 410.14 351.529 407.895 C 352.778 405.653 354.509 403.859 356.672 402.561 C 358.831 401.265 361.243 400.607 363.839 400.607 C 366.543 400.607 369.037 401.265 371.252 402.564 C 373.467 403.862 375.223 405.643 376.47 407.859 C 377.719 410.075 378.352 412.572 378.352 415.279 C 378.352 417.986 377.719 420.482 376.47 422.699 C 375.222 424.914 373.467 426.695 371.252 427.993 C 369.037 429.292 366.543 429.95 363.839 429.95 Z  M 378.272 403.604 C 376.817 401.6 374.985 399.941 372.81 398.658 C 370.08 397.047 366.982 396.229 363.601 396.229 C 360.221 396.229 357.04 397.1 354.149 398.818 C 351.264 400.534 348.945 402.867 347.258 405.752 C 345.568 408.64 344.711 411.846 344.711 415.279 C 344.711 418.712 345.568 421.918 347.258 424.805 C 348.945 427.691 351.264 430.024 354.149 431.739 C 357.04 433.457 360.221 434.328 363.601 434.328 C 366.982 434.328 370.08 433.511 372.81 431.899 C 374.985 430.616 376.817 428.957 378.272 426.953 L 378.272 433.61 L 383.127 433.61 L 383.127 378.228 L 378.272 378.228 L 378.272 403.604 Z " fill="rgb(255,255,255)"/><path d=" M 388.185 433.61 L 393.041 433.61 L 393.041 397.186 L 388.185 397.186 L 388.185 433.61 Z " fill="rgb(255,255,255)"/><path d=" M 411.35 429.95 C 408.097 429.95 405.562 429.215 403.813 427.765 C 402.07 426.322 401.222 424.557 401.222 422.374 C 401.222 420.081 402.201 418.146 404.212 416.462 C 406.227 414.775 409.407 413.92 413.663 413.92 C 416.001 413.92 418.308 414.171 420.516 414.664 C 422.527 415.113 424.08 415.618 425.145 416.167 L 425.145 418.069 C 425.145 420.173 424.495 422.156 423.214 423.967 C 421.918 425.797 420.189 427.266 418.076 428.336 C 415.958 429.407 413.695 429.95 411.35 429.95 Z  M 413.502 396.229 C 410.968 396.229 408.522 396.531 406.229 397.125 C 403.928 397.72 401.934 398.518 400.302 399.498 L 399.915 399.73 L 401.327 403.748 L 401.91 403.398 C 403.188 402.632 404.857 401.968 406.871 401.426 C 408.886 400.883 411.038 400.607 413.264 400.607 C 417.14 400.607 420.124 401.55 422.134 403.41 C 423.992 405.128 424.998 407.937 425.129 411.766 C 423.964 411.268 422.485 410.82 420.716 410.432 C 418.507 409.948 416.108 409.702 413.582 409.702 C 409.691 409.702 406.418 410.324 403.856 411.55 C 401.271 412.788 399.369 414.387 398.202 416.305 C 397.037 418.22 396.447 420.261 396.447 422.374 C 396.447 424.494 397.053 426.5 398.25 428.337 C 399.442 430.168 401.181 431.642 403.417 432.719 C 405.634 433.787 408.249 434.328 411.191 434.328 C 414.246 434.328 417.179 433.567 419.909 432.067 C 422.043 430.892 423.799 429.342 425.145 427.441 L 425.145 433.61 L 430 433.61 L 430 412.968 C 430 401.861 424.451 396.229 413.502 396.229 Z " fill="rgb(255,255,255)"/><path d=" M 390.574 387.702 C 389.738 387.702 388.993 388.008 388.359 388.611 C 387.715 389.223 387.388 389.988 387.388 390.888 C 387.388 391.781 387.711 392.556 388.348 393.193 C 388.984 393.83 389.733 394.153 390.574 394.153 C 391.471 394.153 392.238 393.827 392.848 393.182 C 393.452 392.547 393.759 391.775 393.759 390.888 C 393.759 389.995 393.449 389.232 392.839 388.622 C 392.229 388.012 391.467 387.702 390.574 387.702 Z " fill="rgb(255,255,255)"/></g></svg>